<svg xmlns="http://www.w3.org/2000/svg" version="1.1" viewBox="-5.0 -10.0 110.0 135.0">
 <path d="m49.398 48.422c2.2539 1.3438 4.8203 2.0664 7.4453 2.1055 2.6016-0.011719 5.1523-0.74219 7.3672-2.1055 0.51953-0.3125 1.1914-0.19531 1.5781 0.27344 0.23047 0.26953 0.47656 0.52734 0.73828 0.76953 0.26562 0.22656 0.54688 0.4375 0.83984 0.62891 0.28125 0.17969 0.47656 0.46484 0.53906 0.78906l0.73828 3.4219h-0.003906c0.18359 1.0273 0.65625 1.9805 1.3594 2.7461 0.52734 0.54688 1.2539 0.85156 2.0117 0.84375 1.8398-0.003906 3.3281-1.4961 3.3359-3.3359v-4.2305c-0.003906-0.37109 0.16016-0.72266 0.44141-0.96094 0.67188-0.63281 1.207-1.3945 1.5781-2.2422 0.36719-0.87109 0.54687-1.8086 0.52734-2.7578 0.007813-2.6797-1.543-5.1172-3.9766-6.25-2.4297-1.1289-5.293-0.74219-7.3398 0.98828-0.28906 0.25-0.67969 0.34766-1.0508 0.26172-2.8477-0.55469-5.7422-0.84766-8.6445-0.87109-3.0195 0.019531-6.0312 0.30859-9 0.86328-0.37891 0.058594-0.76172-0.054687-1.0508-0.30859-1.2266-1.0117-2.7656-1.5703-4.3594-1.5781-2.3242-0.003906-4.4922 1.1641-5.7656 3.1055-1.2734 1.9414-1.4805 4.3984-0.55078 6.5273 0.41016 0.88281 1 1.6719 1.7383 2.3047 0.25391 0.23828 0.39844 0.57031 0.39844 0.91797v4.2734c0.035156 1.8047 1.4922 3.2578 3.2969 3.293 0.75391 0.007813 1.4766-0.29688 2-0.84375 0.70312-0.76953 1.1758-1.7188 1.3672-2.7461l0.72656-3.4219c0.070312-0.33203 0.27734-0.625 0.57031-0.79687 0.28516-0.19531 0.55859-0.40625 0.82031-0.63281 0.27344-0.23438 0.52344-0.49609 0.74609-0.78125 0.39453-0.44922 1.0547-0.55469 1.5703-0.25zm-41.398-1.5156h7.0742c0.32812 0 0.64453 0.12891 0.87891 0.36328 0.23047 0.23438 0.36328 0.54688 0.36328 0.87891v5.1797c0.003906 0.32812-0.12891 0.64844-0.35938 0.88281-0.23438 0.23437-0.55078 0.36719-0.88281 0.36719h-7.0742c-0.33203 0-0.64844-0.13281-0.88281-0.36719-0.23438-0.23438-0.36328-0.55469-0.35938-0.88281v-5.1797c0-0.6875 0.55469-1.2422 1.2422-1.2422zm5.832 2.4844h-4.5898v2.707h4.5898zm6.0625 0.26172h7.7891v-10.199h-1.0508l-1.7266 1.7383-5.0117 5.0195zm7.7891 2.4727h-7.7891v7.4961h7.7891zm0 9.9805h-7.7891v9.3047h7.7891zm-10.273 9.3047v-25.715c0-0.33203 0.13281-0.65234 0.36719-0.88672l5-5.0117v-0.34766l-17.062 0.003906v31.957zm-5.957 3.3281c1.7305 0.003907 3.2188 1.2344 3.5508 2.9336 0.33203 1.6992-0.58203 3.3984-2.1875 4.0586-1.6016 0.65625-3.4453 0.089843-4.4023-1.3555-0.95703-1.4453-0.76172-3.3672 0.46875-4.5859 0.68359-0.67969 1.6055-1.0586 2.5703-1.0508zm0.80859 2.8086c-0.21094-0.21875-0.50391-0.33984-0.80859-0.33594-0.59375 0.054687-1.0469 0.55469-1.0469 1.1523 0 0.59766 0.45312 1.0938 1.0469 1.1523 0.30469 0.003906 0.59766-0.11719 0.80859-0.33594 0.44922-0.45313 0.44922-1.1797 0-1.6328zm15.422-3.6523h-21.969v9.0508l21.969 0.003907zm-23.156-36.926h12.25v-16.969c0.007812-2.9688 2.4141-5.375 5.3789-5.3789h69.223c2.9727 0 5.3828 2.4062 5.3906 5.3789v22.41c0 0.6875-0.55859 1.2422-1.2422 1.2422-0.6875 0-1.2422-0.55469-1.2422-1.2422v-22.41c-0.011718-1.5977-1.3086-2.8906-2.9062-2.8945h-69.223c-1.5938 0.011719-2.8867 1.3008-2.9023 2.8945v16.969h3.5273l-0.003906-12.516c0.003906-1.2148 0.48828-2.375 1.3516-3.2305 0.85938-0.85547 2.0273-1.332 3.2383-1.3281h58.832c2.5156 0.007813 4.5547 2.043 4.5586 4.5586v36.156c-0.011718 2.5117-2.0469 4.543-4.5586 4.5469h-56.031v2.8516l61.211 0.003907c1.6016-0.007813 2.8984-1.3047 2.9062-2.9062v-12.957c0-0.6875 0.55469-1.2422 1.2422-1.2422 0.68359 0 1.2422 0.55469 1.2422 1.2422v12.957c0.007813 1.4336-0.55859 2.8125-1.5703 3.832-1.0078 1.0156-2.3867 1.5898-3.8203 1.5898h-27.914v6.3164h3.9023c2.3867 0.003906 4.3164 1.9375 4.3164 4.3242v3.043c-0.007813 0.64453-0.51172 1.1758-1.1562 1.2188h-27.371c-0.33984 0.023437-0.67188-0.09375-0.92578-0.32422-0.25-0.23047-0.39453-0.55469-0.39844-0.89453v-3.0938c0.027344-2.3672 1.9492-4.2695 4.3164-4.2734h3.9258v-6.3164h-19.906v13.684c0 0.6875-0.55469 1.2422-1.2422 1.2422h-24.453c-0.32812 0-0.64453-0.13281-0.87891-0.36328-0.23047-0.23438-0.36328-0.55078-0.36328-0.87891v-45.988c0-0.33203 0.12891-0.65234 0.35938-0.88672 0.23438-0.23438 0.55078-0.36719 0.88281-0.36719zm20.789 0h3.6641c0.32812 0 0.64844 0.13281 0.87891 0.36719 0.23438 0.23437 0.36328 0.55469 0.36328 0.88672v24.461h55.977c0.55859 0 1.0938-0.22266 1.4883-0.61719 0.39453-0.39453 0.61719-0.92969 0.61719-1.4883v-36.125c0-0.55859-0.22266-1.0938-0.61719-1.4883-0.39453-0.39453-0.92969-0.61719-1.4883-0.61719h-58.832c-0.55078-0.003906-1.0781 0.21484-1.4609 0.60938-0.40625 0.39453-0.63672 0.92969-0.64453 1.4961zm42.105 42.316h-21.273c-1.0117 0-1.832 0.82031-1.832 1.832v1.832h24.914v-1.832c0-0.49219-0.19531-0.96484-0.54688-1.3086-0.35156-0.34375-0.82422-0.53125-1.3164-0.52344zm-6.4414-8.7578h-8.4219v6.3164h8.4219zm-7.3672-22.949h-0.003906c-0.68359 0-1.2422-0.55469-1.2422-1.2422 0-0.68359 0.55859-1.2422 1.2422-1.2422h6.3906c0.6875 0 1.2422 0.55859 1.2422 1.2422 0 0.6875-0.55469 1.2422-1.2422 1.2422zm0-4.3047h-0.003906c-0.68359 0-1.2422-0.55469-1.2422-1.2422s0.55859-1.2422 1.2422-1.2422h6.3906c0.6875 0 1.2422 0.55469 1.2422 1.2422s-0.55469 1.2422-1.2422 1.2422zm13.914 0.48437c0-0.6875 0.55469-1.2422 1.2422-1.2422 0.68359 0 1.2422 0.55469 1.2422 1.2422s-0.55859 1.2422-1.2422 1.2422c-0.6875 0-1.2422-0.55469-1.2422-1.2422zm5.5469 0c0-0.6875 0.55469-1.2422 1.2422-1.2422 0.68359 0 1.2422 0.55469 1.2422 1.2422s-0.55859 1.2422-1.2422 1.2422c-0.6875 0-1.2422-0.55469-1.2422-1.2422zm-2.8203 2.6719c0-0.68359 0.55469-1.2383 1.2422-1.2383 0.68359 0 1.2422 0.55469 1.2422 1.2383 0 0.6875-0.55859 1.2422-1.2422 1.2422-0.6875 0-1.2422-0.55469-1.2422-1.2422zm0-5.4844v0.003907c0-0.6875 0.55469-1.2422 1.2422-1.2422 0.68359 0 1.2422 0.55469 1.2422 1.2422 0 0.68359-0.55859 1.2422-1.2422 1.2422-0.6875 0-1.2422-0.55859-1.2422-1.2422zm-28.801-0.41016c-0.03125-0.34766 0.082031-0.69141 0.32031-0.94922 0.23437-0.25781 0.56641-0.40625 0.91797-0.40625 0.34766 0 0.67969 0.14844 0.91406 0.40625 0.23828 0.25781 0.35156 0.60156 0.32031 0.94922v2.1992h2.2109v0.003906c0.34766-0.035156 0.69141 0.082031 0.95312 0.31641 0.25781 0.23828 0.40234 0.57031 0.40234 0.91797 0 0.35156-0.14453 0.68359-0.40234 0.91797-0.26172 0.23438-0.60547 0.35156-0.95312 0.32031h-2.2109v2.1562c-0.058593 0.64062-0.59375 1.1289-1.2344 1.1289-0.64453 0-1.1797-0.48828-1.2383-1.1289v-2.2109h-2.1992c-0.34766 0.035156-0.69531-0.082031-0.95312-0.31641-0.25781-0.23828-0.40625-0.57031-0.40625-0.91797 0-0.35156 0.14844-0.68359 0.40625-0.91797 0.25781-0.23438 0.60547-0.35156 0.95312-0.32031h2.1914zm15.391 12.477c-2.7305-0.023438-5.4141-0.69531-7.832-1.9609-0.097657 0.10547-0.19922 0.20312-0.30469 0.29688-0.23047 0.19922-0.47266 0.39062-0.71484 0.57812l-0.625 2.9258c-0.28906 1.5-0.99219 2.8828-2.0312 4-0.98438 1.0156-2.3438 1.582-3.7578 1.5703-3.2031-0.019531-5.7891-2.6211-5.7891-5.8203v-3.7578c-1.6797-1.75-2.6133-4.082-2.6094-6.5078 0.003906-2.4766 0.99609-4.8516 2.75-6.6016 1.7578-1.75 4.1367-2.7305 6.6172-2.7227 1.9805 0.007812 3.9062 0.64844 5.4961 1.832 2.9336-0.51953 5.9062-0.78906 8.8828-0.80078 2.8672 0.007812 5.7266 0.27734 8.5469 0.80078 0.72266-0.53125 1.5156-0.95703 2.3594-1.2656 1.0312-0.37891 2.1211-0.56641 3.2188-0.55859 2.4844 0 4.8633 0.98828 6.6133 2.7422 1.7539 1.7578 2.7383 4.1367 2.7344 6.6172-0.007813 1.2891-0.27734 2.5625-0.78906 3.7461-0.44531 1.0117-1.0664 1.9336-1.832 2.7266v3.7578c0 3.2148-2.6055 5.8203-5.8203 5.8203-1.4141 0.015624-2.7734-0.55078-3.7578-1.5664-1.0469-1.1133-1.75-2.5-2.0312-4l-0.63281-2.9258c-0.24609-0.17578-0.48438-0.37109-0.70312-0.57812l-0.29297-0.26172-0.003906-0.003906c-2.3672 1.2578-5.0117 1.918-7.6914 1.918z"/>
<text x="0.0" y="117.5" font-size="5.0" font-weight="bold" font-family="Arbeit Regular, Helvetica, Arial-Unicode, Arial, Sans-serif" fill="#000000">Created by Siti</text><text x="0.0" y="122.5" font-size="5.0" font-weight="bold" font-family="Arbeit Regular, Helvetica, Arial-Unicode, Arial, Sans-serif" fill="#000000">from Noun Project</text></svg>